<svg width="16" height="16" viewBox="0 0 16 16" fill="none" xmlns="http://www.w3.org/2000/svg">
<path d="M15.6 10.4H15.2V7.69748C15.2 7.37998 15.0725 7.07498 14.8475 6.84998L12.35 4.35248C12.125 4.12748 11.82 3.99998 11.5025 3.99998H10.4V2.79998C10.4 2.13748 9.8625 1.59998 9.2 1.59998H1.2C0.5375 1.59998 0 2.13748 0 2.79998V10.8C0 11.4625 0.5375 12 1.2 12H1.6C1.6 13.325 2.675 14.4 4 14.4C5.325 14.4 6.4 13.325 6.4 12H9.6C9.6 13.325 10.675 14.4 12 14.4C13.325 14.4 14.4 13.325 14.4 12H15.6C15.82 12 16 11.82 16 11.6V10.8C16 10.58 15.82 10.4 15.6 10.4ZM4 13.2C3.3375 13.2 2.8 12.6625 2.8 12C2.8 11.3375 3.3375 10.8 4 10.8C4.6625 10.8 5.2 11.3375 5.2 12C5.2 12.6625 4.6625 13.2 4 13.2ZM12 13.2C11.3375 13.2 10.8 12.6625 10.8 12C10.8 11.3375 11.3375 10.8 12 10.8C12.6625 10.8 13.2 11.3375 13.2 12C13.2 12.6625 12.6625 13.2 12 13.2ZM14 7.99998H10.4V5.19998H11.5025L14 7.69748V7.99998Z" fill="#6B7280"/>
</svg>
